<svg width="155" height="207" viewBox="0 0 155 207" fill="none" xmlns="http://www.w3.org/2000/svg">
<path fill-rule="evenodd" clip-rule="evenodd" d="M83.967 0.23168C90.918 -0.832823 94.2576 1.771 93.9845 8.04283C92.0795 12.0968 88.7405 13.5721 83.967 12.4691C78.6777 8.30789 78.6777 4.2289 83.967 0.23168Z" fill="#DC143C"/>
<path fill-rule="evenodd" clip-rule="evenodd" d="M104.5 170.821C106.898 168.008 108.898 164.954 110.5 161.661C126.829 156.624 135.996 146.244 138 130.52C139.535 108.715 128.702 95.1293 105.5 89.7611C99.865 88.9331 94.198 88.4751 88.5 88.3872C88.5 87.1662 88.5 85.9444 88.5 84.7234C99.523 83.029 106.689 77.2284 110 67.3208C114.936 42.0778 103.436 29.5598 75.5 29.7677C74.67 38.4608 74.17 47.3151 74 56.3296C69.689 53.8713 65.189 52.0394 60.5 50.8341C60.877 44.6451 60.377 38.5386 59 32.5155C55.171 27.1527 49.671 24.4049 42.5 24.2721C61.192 22.9862 79.858 23.1391 98.5 24.7301C127.048 33.5276 134.881 50.4723 122 75.5642C119.079 78.8542 115.579 81.449 111.5 83.3496C147.326 90.8299 160.826 110.827 152 143.343C146.833 152.96 139 160.135 128.5 164.867C120.827 167.998 112.827 169.983 104.5 170.821Z" fill="white"/>
<path fill-rule="evenodd" clip-rule="evenodd" d="M76.544 29.3097C76.378 38.4745 76.544 47.6338 77.044 56.7876C87.156 63.6562 91.323 72.8155 89.544 84.2655C89.544 85.4864 89.544 86.7083 89.544 87.9292C87.791 94.4735 83.791 99.6641 77.544 103.5C76.658 104.256 76.325 105.172 76.544 106.248C106.109 111.858 118.609 128.345 114.044 155.708C113.106 157.529 112.272 159.361 111.544 161.204C109.942 164.496 107.942 167.55 105.544 170.363C94.587 179.651 81.587 184.994 66.544 186.392C49.505 188.594 33.505 185.847 18.544 178.148C4.06396 168.137 -1.93604 154.856 0.543962 138.305C2.61996 146.605 5.78696 154.542 10.044 162.119C14.173 167.886 19.673 172.161 26.544 174.942C27.094 136.806 27.261 98.6428 27.044 60.4513C24.101 54.289 18.934 50.9312 11.544 50.3761C28.214 49.2715 44.881 49.2715 61.544 50.3761C66.233 51.5815 70.733 53.4133 75.044 55.8717C75.214 46.8571 75.714 38.0028 76.544 29.3097Z" fill="#DC143C"/>
<path fill-rule="evenodd" clip-rule="evenodd" d="M60.5 59.9934C60.5 74.6482 60.5 89.3031 60.5 103.958C60.389 104.523 60.056 104.981 59.5 105.332C55.275 106.778 50.941 107.847 46.5 108.538C50.749 109.661 55.083 110.271 59.5 110.369C60.153 126.581 59.486 142.456 57.5 157.998C50.63 155.372 45.297 151.097 41.5 145.175C41.068 144.067 40.401 143.151 39.5 142.427C39.221 137.76 39.555 133.181 40.5 128.688C41.58 125.718 41.747 122.665 41 119.529C40.617 119.02 40.117 118.715 39.5 118.613C39.5 97.8515 39.5 77.091 39.5 56.3297C44.179 56.1776 48.845 56.3306 53.5 56.7876C56.069 57.6101 58.402 58.679 60.5 59.9934Z" fill="#0D0D0D"/>
<path fill-rule="evenodd" clip-rule="evenodd" d="M60.5 59.9934C66.557 62.0368 70.39 66.0055 72 71.9004C74.421 80.7868 73.421 89.3352 69 97.5465C66.788 100.455 63.955 102.592 60.5 103.958C60.5 89.3031 60.5 74.6482 60.5 59.9934Z" fill="white"/>
<path fill-rule="evenodd" clip-rule="evenodd" d="M88.5 88.3872C94.198 88.4751 99.865 88.9331 105.5 89.7611C128.702 95.1293 139.535 108.715 138 130.52C135.996 146.244 126.829 156.624 110.5 161.661C111.228 159.819 112.062 157.987 113 156.166C117.565 128.803 105.065 112.316 75.5 106.706C75.281 105.63 75.614 104.714 76.5 103.958C82.747 100.122 86.747 94.9315 88.5 88.3872Z" fill="#0D0D0D"/>
<path fill-rule="evenodd" clip-rule="evenodd" d="M59.5 110.369C59.833 110.369 60.167 110.369 60.5 110.369C60.5 126.551 60.5 142.732 60.5 158.914C59.209 159.131 58.209 158.826 57.5 157.998C59.486 142.456 60.153 126.581 59.5 110.369Z" fill="#B8B8B8"/>
<path fill-rule="evenodd" clip-rule="evenodd" d="M60.5 110.369C65.162 111.284 69.829 112.2 74.5 113.117C74.17 130.069 74.503 146.861 75.5 163.493C76.5 163.493 77.5 163.493 78.5 163.493C82.982 164.25 87.649 164.708 92.5 164.867C90.586 167.939 87.919 170.229 84.5 171.737C66.833 171.441 52.167 165.335 40.5 153.418C40.19 150.475 40.523 147.727 41.5 145.175C45.297 151.097 50.63 155.372 57.5 157.998C58.209 158.826 59.209 159.131 60.5 158.914C60.5 142.732 60.5 126.551 60.5 110.369Z" fill="white"/>
<path fill-rule="evenodd" clip-rule="evenodd" d="M78.5 163.493C77.5 163.493 76.5 163.493 75.5 163.493C75.167 146.996 75.5 130.509 76.5 114.033C90.284 119.489 97.617 129.107 98.5 142.885C98.582 149.787 97.082 156.351 94 162.577C88.928 163.467 83.762 163.773 78.5 163.493Z" fill="#0D0D0D" fill-opacity="0.992157"/>
<path fill-rule="evenodd" clip-rule="evenodd" d="M39.5 118.613C40.117 118.715 40.617 119.02 41 119.529C41.747 122.665 41.58 125.718 40.5 128.688C39.518 125.517 39.185 122.158 39.5 118.613Z" fill="#3F3722"/>
<path fill-rule="evenodd" clip-rule="evenodd" d="M39.5 142.427C40.401 143.151 41.068 144.067 41.5 145.175C40.523 147.727 40.19 150.475 40.5 153.418C40.167 153.418 39.833 153.418 39.5 153.418C39.5 149.754 39.5 146.091 39.5 142.427Z" fill="#584D2E"/>
<path fill-rule="evenodd" clip-rule="evenodd" d="M39.5 153.418C39.833 153.418 40.167 153.418 40.5 153.418C52.167 165.335 66.833 171.441 84.5 171.737C79.195 176.166 72.861 178.761 65.5 179.522C57.167 180.133 48.833 180.133 40.5 179.522C39.515 170.897 39.182 162.196 39.5 153.418Z" fill="#0D0D0D"/>
<path fill-rule="evenodd" clip-rule="evenodd" d="M51 197.838C51 198.26 51 198.681 51 199.102C50.3258 206.722 46.1515 208.828 38.4771 205.42C37.3611 204.923 36.8971 204.081 37.0856 202.893C36.4171 196.233 39.6633 193.39 46.8257 194.363C48.581 195.223 49.9724 196.381 51 197.838Z" fill="#DC143C"/>
</svg>
